<svg id="Layer_1" data-name="Layer 1" xmlns="http://www.w3.org/2000/svg" viewBox="0 0 200 200"><defs><style>.cls-1{fill:#eaeaea;}.cls-2{fill:#7a7978;}</style></defs><title>Back</title><path id="path1575" class="cls-1" d="M9.64,69.54c0,.34,0,.69,0,1,2,13.79,16.38,21.7,29.16,23.11C50.41,95.56,65.47,90.8,68.39,78.1a12.5,12.5,0,0,0-.16-5.59C63.44,57,45.41,49.7,30.28,51.55,20.53,52,9.76,59,9.64,69.54Zm.12,63.93c0,8.55,8.5,15.41,16.61,17,16.06,3.25,36.29-3.6,41.8-20.29a13.17,13.17,0,0,0,.25-4.79C66.8,113.94,54.19,108.82,43.89,109c-13.57,0-29.43,6.68-33.58,20.67A13.34,13.34,0,0,0,9.76,133.46ZM54,176.94c-.19,6.07,2.71,12.12,7.82,14.23,13.68,5.63,31.44-4.58,34.77-22a14.34,14.34,0,0,0-8.91-15.76c-12-4.13-26.18,3.41-32,16.62a16.67,16.67,0,0,0-1.7,6.91ZM57.8,32.64c-2.1-5.7-1.25-12.36,2.94-16C71.95,7,92,11.1,100.67,26.59a14.34,14.34,0,0,1-3.49,17.76c-10.06,7.69-25.92,5-35.59-5.69a16.67,16.67,0,0,1-3.79-6Z"/><path id="path5187" class="cls-2" d="M170,79.84c1.57-34.65-46.12-68.16-99.28,23.83a.42.42,0,0,1,0,.6c49.22,98,100.45,62.19,97.6,26.25-1.11-14-7.87-20.81-13.76-24.09,6.08-2.93,13.22-9.32,15.15-23.24Q169.9,81.51,170,79.84Z"/><path id="path5187-2" data-name="path5187" class="cls-1" d="M191.21,80.37C192.75,47.07,145,14.81,92,103.16a.39.39,0,0,1,0,.58c49.33,94.25,100.52,59.88,97.62,25.34-1.13-13.47-7.89-20-13.79-23.17C181.85,103.1,189,97,190.9,83.59,191.05,82.52,191.16,81.45,191.21,80.37Z"/></svg>