<svg xmlns="http://www.w3.org/2000/svg" viewBox="0 0 636 546"><defs><style>.cls-1{fill:#c9b486;}.cls-2{fill:#e1b9b8;}.cls-3{fill:#ebe5d0;}.cls-4{fill:#4e4d4b;}.cls-5{fill:#fff;}.cls-6{fill:#9f5e53;}.cls-7{fill:#d5635f;}</style></defs><title>Mixed</title><g id="Layer_2" data-name="Layer 2"><path class="cls-1" d="M305.69,132.47l-242,91.93L92.9,28A31.91,31.91,0,0,1,144,7.45Z"/><path class="cls-2" d="M267,149.51,105.05,211,124.87,77.67a20.22,20.22,0,0,1,32.37-13Z"/><path class="cls-3" d="M370.51,154l242,91.93L583.3,49.51A31.91,31.91,0,0,0,532.22,29Z"/><path class="cls-2" d="M410.52,168.12l162,61.54L552.66,96.27a20.22,20.22,0,0,0-32.37-13Z"/><ellipse class="cls-3" cx="331.5" cy="328.25" rx="304.5" ry="217"/><circle class="cls-4" cx="483.75" cy="367" r="28.75"/><circle class="cls-5" cx="497.87" cy="382.62" r="3.13"/><circle class="cls-4" cx="170.75" cy="345" r="28.75"/><circle class="cls-5" cx="184.87" cy="360.62" r="3.13"/><ellipse class="cls-2" cx="138" cy="393.62" rx="29" ry="22.13"/><ellipse class="cls-2" cx="510" cy="420.62" rx="29" ry="22.13"/><ellipse class="cls-6" cx="326" cy="406.62" rx="29" ry="22.13"/><path class="cls-7" d="M360.9,455.11a39.59,39.59,0,0,1-79-5.79c.07-1,.18-1.94.32-2.9L361,452.19C361,453.16,361,454.13,360.9,455.11Z"/></g></svg>