<svg id="Layer_1" data-name="Layer 1" xmlns="http://www.w3.org/2000/svg" viewBox="0 0 200 200"><defs><style>.cls-1{fill:#fe7877;opacity:0.1;}.cls-2{fill:#eea5f2;}</style></defs><title>Paw</title><rect class="cls-1" x="-4.86" y="-3.76" width="208" height="213"/><path id="path1575" d="M138,22.69c-.34,0-.68-.06-1-.07-13.92.82-23.05,14.41-25.57,27-2.89,11.38.53,26.8,12.92,30.82a12.5,12.5,0,0,0,5.58.33c15.85-3.4,24.73-20.73,24.21-36C154.51,35.08,148.4,23.73,138,22.69ZM74.26,17.21c-8.52-.75-16.1,7.12-18.36,15.06C51.27,48,56.32,68.74,72.45,75.69a13.17,13.17,0,0,0,4.75.67c11.51-.61,17.72-12.73,18.39-23C96.78,39.83,91.53,23.45,78,18.08A13.34,13.34,0,0,0,74.26,17.21ZM27.08,57.42C21,56.7,14.76,59.06,12.21,64,5.4,77.1,14,95.68,31.08,100.53A14.34,14.34,0,0,0,47.56,93c5.16-11.57-1.1-26.38-13.75-33.32a16.67,16.67,0,0,0-6.74-2.3ZM170.49,73.91c5.87-1.59,12.42-.16,15.66,4.32,8.64,12,2.8,31.65-13.39,38.91a14.34,14.34,0,0,1-17.39-5c-6.78-10.7-2.72-26.26,8.79-35a16.67,16.67,0,0,1,6.33-3.25Z"/><path id="path5187" class="cls-2" d="M113.55,182.51c34.38,4.61,71.94-40-15-101a.42.42,0,0,1-.59-.07C-4,121.89,27.16,176.07,63.22,176.37c14.06.12,21.42-6,25.2-11.6,2.39,6.31,8.12,14,21.82,17.13Q111.89,182.28,113.55,182.51Z"/></svg>