<svg xmlns="http://www.w3.org/2000/svg" viewBox="0 0 634 546"><defs><style>.cls-1{fill:#ebe5d0;}.cls-2{fill:#96835c;}.cls-3{fill:#e1b9b8;}.cls-4{fill:#4e4d4b;}.cls-5{fill:#fff;}.cls-6{fill:#d5635f;}.cls-7{fill:#9f5e53;}</style></defs><title>PureBread</title><g id="Layer_2" data-name="Layer 2"><path class="cls-1" d="M17.14,290.77s-35.31,91-.93,139.46c0,0,14.67-71.64,53.43-76.14Z"/><path class="cls-1" d="M44.94,366s-38.15,51-3.76,99.49c0,0,14.67-71.64,53.43-76.14Z"/><path class="cls-1" d="M76.66,396.67s-38.15,51-3.76,99.49c0,0,14.67-71.64,53.43-76.14Z"/><path class="cls-2" d="M291.29,132.47l-242,91.93L78.51,28A31.91,31.91,0,0,1,129.59,7.45Z"/><path class="cls-3" d="M252.62,149.51,90.66,211,110.48,77.67a20.22,20.22,0,0,1,32.37-13Z"/><path class="cls-2" d="M356.12,154l242,91.93L568.91,49.51A31.91,31.91,0,0,0,517.83,29Z"/><path class="cls-3" d="M396.12,168.12l162,61.54L538.27,96.27a20.22,20.22,0,0,0-32.37-13Z"/><ellipse class="cls-1" cx="317.11" cy="328.25" rx="304.5" ry="217"/><ellipse class="cls-2" cx="213.29" cy="346.83" rx="79.45" ry="126.84" transform="translate(-147.67 535.22) rotate(-85.97)"/><circle class="cls-4" cx="156.36" cy="345" r="28.75"/><circle class="cls-5" cx="170.48" cy="360.62" r="3.13"/><ellipse class="cls-2" cx="419.26" cy="357.5" rx="79.45" ry="126.84" transform="translate(33.19 750.61) rotate(-85.97)"/><circle class="cls-4" cx="469.36" cy="367" r="28.75"/><circle class="cls-5" cx="483.48" cy="382.62" r="3.13"/><ellipse class="cls-2" cx="307.03" cy="428.75" rx="79.45" ry="126.84" transform="translate(-142.23 704.9) rotate(-85.97)"/><path class="cls-6" d="M346.51,455.11a39.59,39.59,0,0,1-79-5.79c.07-1,.18-1.94.32-2.9l78.74,5.77C346.61,453.16,346.58,454.13,346.51,455.11Z"/><ellipse class="cls-7" cx="311.61" cy="406.62" rx="29" ry="22.13"/><ellipse class="cls-3" cx="123.61" cy="393.62" rx="29" ry="22.13"/><path class="cls-1" d="M618,294.8s35.31,91,.93,139.46c0,0-14.67-71.64-53.43-76.14Z"/><path class="cls-1" d="M590.23,370s38.15,51,3.76,99.49c0,0-14.67-71.64-53.43-76.14Z"/><path class="cls-1" d="M558.51,400.71s38.15,51,3.76,99.49c0,0-14.67-71.64-53.43-76.14Z"/><ellipse class="cls-3" cx="495.61" cy="420.62" rx="29" ry="22.13"/><path class="cls-2" d="M373.06,347.93l-125.94-3c-20.69-.5-84.29-25.39-73.52-43.06L290.4,196.48a26.88,26.88,0,0,1,46.55,1.12l99.53,107.25C446.39,323,393.75,348.42,373.06,347.93Z"/></g></svg>