<?xml version="1.0" encoding="UTF-8"?>
<svg width="166px" height="127px" viewBox="0 0 166 127" version="1.1" xmlns="http://www.w3.org/2000/svg" xmlns:xlink="http://www.w3.org/1999/xlink">
    <!-- Generator: Sketch 51.1 (57501) - http://www.bohemiancoding.com/sketch -->
    <title>Taco@2x</title>
    <desc>Created with Sketch.</desc>
    <defs></defs>
    <g id="Page-1" stroke="none" stroke-width="1" fill="none" fill-rule="evenodd">
        <g id="Desktop-HD-Copy" transform="translate(-1037.000000, -1073.000000)" fill-rule="nonzero">
            <g id="Taco" transform="translate(1013.000000, 1049.000000)">
                <path d="M158.821269,103.182912 C158.821269,61.7615554 125.242625,28.1829116 83.8212688,28.1829116 C42.3999126,28.1829116 8.82126884,61.7615554 8.82126884,103.182912 C114.204058,103.182912 75.8146259,103.182912 158.821269,103.182912 Z" id="Oval-3" fill="#FFE875" transform="translate(83.821269, 65.682912) rotate(-25.000000) translate(-83.821269, -65.682912) "></path>
                <path d="M50.5390625,123.128906 C16.1380208,107.980469 16.1380208,100.40625 50.5390625,100.40625 C102.140625,100.40625 4.0546875,107.402344 30.9453125,91.6914062 C48.8723958,81.2174479 51.0872396,73.8346354 37.5898438,69.5429688 C42.5065104,53.4075521 48.9440104,49.3736979 56.9023438,57.4414062 C64.8606771,65.5091146 69.0208333,72.6835938 69.3828125,78.9648437 C66.0182292,31.7434896 71.0429688,24.5690104 84.4570313,57.4414063 C97.8710938,90.3138021 100.601563,90.3138021 92.6484375,57.4414063 C95.484375,26.0611979 103.082031,23.9244792 115.441406,51.03125 C127.800781,78.1380208 127.800781,82.6158854 115.441406,64.4648438 C124.798177,22.8658854 138.253906,24.5585938 155.808594,69.5429688 C135.832031,96.2311198 100.742188,114.093099 50.5390625,123.128906 Z" id="Path-3" fill="#79BD9A"></path>
                <polygon id="Path-4" fill="#FFB938" points="60.9550781 82.2285156 34.96875 82.2285156 32.2675781 86.6933594 64.7460938 86.6933594"></polygon>
                <polygon id="Path-4" fill="#FFB938" transform="translate(48.506836, 104.460938) rotate(44.000000) translate(-48.506836, -104.460938) " points="60.9550781 102.228516 34.96875 102.228516 32.2675781 106.693359 64.7460938 106.693359"></polygon>
                <polygon id="Path-4" fill="#FFB938" transform="translate(68.506836, 74.460938) rotate(60.000000) translate(-68.506836, -74.460938) " points="80.9550781 72.2285156 54.96875 72.2285156 52.2675781 76.6933594 84.7460938 76.6933594"></polygon>
                <path d="M181,122 C181,80.5786438 147.421356,47 106,47 C64.5786438,47 31,80.5786438 31,122 C136.382789,122 97.993357,122 181,122 Z" id="Oval-3" fill="#FFE875" transform="translate(106.000000, 84.500000) rotate(-25.000000) translate(-106.000000, -84.500000) "></path>
            </g>
        </g>
    </g>
</svg>