<svg id="Layer_1" data-name="Layer 1" xmlns="http://www.w3.org/2000/svg" viewBox="0 0 193.51 62.52"><defs><style>.cls-1{fill:#eea5f2;}</style></defs><title>Artboard 1</title><path id="path1575" d="M57.43,8.81h-.09a2.77,2.77,0,0,0-2.27,2.39,2.23,2.23,0,0,0,1.14,2.73,1.11,1.11,0,0,0,.49,0,3.08,3.08,0,0,0,2.14-3.19A1.82,1.82,0,0,0,57.43,8.81Zm-5.64-.49a1.73,1.73,0,0,0-1.63,1.33,3.2,3.2,0,0,0,1.47,3.85,1.17,1.17,0,0,0,.42.06c1-.05,1.57-1.13,1.63-2A3,3,0,0,0,52.12,8.4,1.18,1.18,0,0,0,51.79,8.33Zm-4.18,3.56a1.29,1.29,0,0,0-1.32.58A2.41,2.41,0,0,0,48,15.71,1.27,1.27,0,0,0,49.42,15a2.4,2.4,0,0,0-1.22-3,1.48,1.48,0,0,0-.6-.2Zm12.7,1.46a1.29,1.29,0,0,1,1.39.38,2.41,2.41,0,0,1-1.19,3.45A1.27,1.27,0,0,1,59,16.73a2.4,2.4,0,0,1,.78-3.1,1.48,1.48,0,0,1,.56-.29Z"/><path id="path5187" class="cls-1" d="M55.27,23c3,.41,6.37-3.54-1.33-8.95a0,0,0,0,1-.05,0c-9,3.58-6.27,8.38-3.07,8.41a2.48,2.48,0,0,0,2.23-1A2.48,2.48,0,0,0,55,22.92Z"/><path d="M43.57,42.62q.6.05.53.86a2,2,0,0,1-.71,1.36c-.43.37-1.35,2.87-2,3.52a15.58,15.58,0,0,1-3.83,2.19,20.14,20.14,0,0,1-4.07,1.26,15,15,0,0,1-4.32.29q-4.78-.42-4.51-3.59a30.45,30.45,0,0,1,2.26-7.2,30.85,30.85,0,0,0,2.24-7q.18-2.08-2.06-2.27a8.4,8.4,0,0,0-2.34.17Q23.87,35.28,21.7,42t-2.45,7.6q-.28.92-.94.86L10,49.94q-.18,0-.37-.35a1.29,1.29,0,0,1-.15-.77,22.56,22.56,0,0,1,1-3q.91-2.57,2-5.52c.73-2,1.32-4.17,2.1-6.52,1.64-5,.23-6.2.23-6.2l0-.64q.1-1.17,1.66-1l8.66.41a.68.68,0,0,1,.6.42,1.76,1.76,0,0,1,.13.91,12.89,12.89,0,0,1-.33,1.68q6-2.94,9.61-2.62a4,4,0,0,1,2.71,1.48,5.61,5.61,0,0,1,1.05,4.3,26,26,0,0,1-2.16,7.39,28.7,28.7,0,0,0-2,5.61q-.19,2.17,1,2.28a3.9,3.9,0,0,0,2.66-.6c3.56-2.34,3.33-3.11,3.85-4A1.29,1.29,0,0,1,43.57,42.62Z"/><path d="M52.41,47.12a8.58,8.58,0,0,0,3-.5A14.75,14.75,0,0,0,58.3,45.5,2.78,2.78,0,0,1,59.55,45q.68.06.59,1a1.62,1.62,0,0,1-.59,1,18.82,18.82,0,0,1-6.24,3.17,19,19,0,0,1-7.79,1.25,6.05,6.05,0,0,1-3.4-1.26,3.31,3.31,0,0,1-1.15-3,29.52,29.52,0,0,1,1.91-5.71q3.41-8.57,3.8-13l.06-.89q.1-1.17,1.67-1l8,.44a.68.68,0,0,1,.6.42,1.59,1.59,0,0,1,.14.82,23.33,23.33,0,0,1-1.48,5.22Q54.32,37,53,40.46a21.8,21.8,0,0,0-1.46,5Q51.4,47,52.41,47.12Z"/><path d="M65,50.54c-1.75-1.49-.92-2.7-3.21-2.54a27.28,27.28,0,0,0-7.13,1.59c-.81.3-.32-1.39-.28-2.14,0-.58,2.35-1.19,3.06-1.52,1.71-.79,1.57-2.37,3.47-7.91q5.41-15.83,5.82-20.55l.06-.89q.1-1.17,1.67-1l4.2.37,3.24.21a.68.68,0,0,1,.6.42,1.58,1.58,0,0,1,.14.82q-.19,2.17-4.15,13.33l0,0a10.84,10.84,0,0,1,3.71-3.29,7.85,7.85,0,0,1,4.4-.9q6.72.59,5.92,9.69a19.5,19.5,0,0,1-1.78,6.64A18.52,18.52,0,0,1,81,48.21a16.57,16.57,0,0,0,8.53-2.31,1.29,1.29,0,0,1,.79-.28q.63.05.56.79a1.93,1.93,0,0,1-.68,1.29,18,18,0,0,1-6.84,3.19A74.45,74.45,0,0,1,72.22,52.5a18.23,18.23,0,0,1-3.39-.37A10.3,10.3,0,0,1,65,50.54ZM75.59,32q-3-.26-5.65,6.28a18.21,18.21,0,0,0-1.37,4.92,5.51,5.51,0,0,0,.21,2.68,1.89,1.89,0,0,0,1.68.88,4.07,4.07,0,0,0,3-1.49,13.32,13.32,0,0,0,2.81-4.17,14.69,14.69,0,0,0,1.33-4.67,6.19,6.19,0,0,0-.37-3.22A1.94,1.94,0,0,0,75.59,32Z"/><path d="M128.09,16.36l7.92.43a.68.68,0,0,1,.6.42,1.58,1.58,0,0,1,.14.82q-.21,2.45-4.32,13.88t-4.29,13.51a2.73,2.73,0,0,0,.13,1.32.9.9,0,0,0,.82.51c1.28.11,12.16-4.33,15-5.81.28-.15,0,.72,0,1.22s.72,1,.24,1.4-8.88,3.81-10,4.29c-.87.38-2.21,1-3.37,1.58a18.58,18.58,0,0,1-3.9,1.28,14.8,14.8,0,0,1-4.46.27A6.72,6.72,0,0,1,119,50.25a3.65,3.65,0,0,1-1.1-3.42Q118,45.15,122,33.9q1.49-4.2,2.83-8.75a39,39,0,0,0,1.54-6.86l.06-.89Q126.53,16.23,128.09,16.36Z"/><path d="M161.41,45.38q.56,0,.5.81a1.84,1.84,0,0,1-.89,1.33,20,20,0,0,1-2,1.21,34.44,34.44,0,0,1-3.26,1.47,22.53,22.53,0,0,1-10.5,1.41q-10.89-1-10-10.67A16.92,16.92,0,0,1,138,32.71a14.42,14.42,0,0,1,6-5.14,15.33,15.33,0,0,1,7.76-1.29q4.11.36,5.86,2.37a6.74,6.74,0,0,1,1.47,5.23,8,8,0,0,1-2.3,5.26,12.87,12.87,0,0,1-4.12,3c-.91.41-2.21.71-3.62,1.17-1.8.58-4.37,1-4.37,1.17a5.16,5.16,0,0,0,3.07,3,7.55,7.55,0,0,0,1.79.37q3.77.33,11.16-2.34A1.71,1.71,0,0,1,161.41,45.38Zm-17.05-3.84a18.25,18.25,0,0,0,5.22-4.47,9.49,9.49,0,0,0,2.12-5.44,2.24,2.24,0,0,0-.27-1.41,1.37,1.37,0,0,0-1.12-.62,2.3,2.3,0,0,0-1.71.84,8.25,8.25,0,0,0-1.65,2.44A35.91,35.91,0,0,0,144.35,41.54Z"/><path d="M94.29,50.76A2.45,2.45,0,0,0,91.88,49a27.13,27.13,0,0,0-7.35,1.6c-.81.3-.32-1.39-.28-2.14,0-.58,2.35-1.19,3.06-1.52,1.71-.79,1.57-2.37,3.47-7.91q5.41-15.83,5.82-20.55l.06-.89q.1-1.17,1.67-1l4.2.37,3.24.21a.68.68,0,0,1,.6.42,1.58,1.58,0,0,1,.14.82q-.19,2.17-4.15,13.33l0,0a10.84,10.84,0,0,1,3.71-3.29,7.85,7.85,0,0,1,4.4-.9q6.72.59,5.92,9.69a19.5,19.5,0,0,1-1.78,6.64,18.74,18.74,0,0,1-3.32,4.94.23.23,0,0,0,.18.39c3.23-.26,6.24-1.53,6.53-3.14a.31.31,0,0,1,.3-.24,18.78,18.78,0,0,1,1.9.82q.63.05.56.79a1.93,1.93,0,0,1-.68,1.29,18,18,0,0,1-6.84,3.19,74.45,74.45,0,0,1-11.17,1.61,18.23,18.23,0,0,1-3.39-.37C98.1,53,94.8,52.22,94.29,50.76ZM105.46,33q-3-.26-5.65,6.28a18.21,18.21,0,0,0-1.37,4.92,5.51,5.51,0,0,0,.21,2.68,1.89,1.89,0,0,0,1.68.88,4.07,4.07,0,0,0,3-1.49,13.32,13.32,0,0,0,2.81-4.17,14.69,14.69,0,0,0,1.33-4.67,6.19,6.19,0,0,0-.37-3.22A1.94,1.94,0,0,0,105.46,33Z"/><path d="M161.43,45.63l-.19-.07-.13.18C161.43,45.72,161.51,45.68,161.43,45.63Z"/><path d="M161.43,45.63a.89.89,0,0,1-.32.11C161.43,45.72,161.51,45.68,161.43,45.63Z"/><path d="M185.37,46.79a2.56,2.56,0,0,0-1.38.55c-2,1.23-6.32,2.09-9.61,1.94,11.57-.63,11.44-14.5,3.49-22.59-.18-.18-.28-.37-.53-.41l-5.17-.63c-1-.16-1.58.16-1.71,1l-.13.91c-1.23,8.09-9.52,18.33-17.81,20.22l-2.93,1c3.4.62,5.38,1.75,8.69.31a4.78,4.78,0,0,1,3.56,0c.82.47,1.45,1.14,2.27,1.69a9.21,9.21,0,0,0,3,1,16.34,16.34,0,0,0,1.88.19c2.93.08,11.22.16,16-2.93a2,2,0,0,0,.78-1.18C185.86,47.17,185.73,46.84,185.37,46.79Zm-10.7-5.28c-1.58,4.31-4.88,5.92-8.95,5.25a1.84,1.84,0,0,1-1.52-.9,34.41,34.41,0,0,0,8.61-13.75A9.94,9.94,0,0,1,174.68,41.51Z"/></svg>